{
	"asset":{
		"version":"2.0",
		"generator":"Created using the official Cinema 4D glTF Exporter 1.000x284978"
	},
	"scenes":[{
		"nodes":[0,
		1,
		2]
	}],
	"nodes":[{
		"name":"Camera",
		"camera":0,
		"translation":[-302.9658508300781,
		153.97291564941407,
		-1525.4642333984376],
		"rotation":[0.00235622376203537,
		-0.9939141273498535,
		0.021688969805836679,
		0.10797581076622009],
		"scale":[1.0,
		1.0,
		1.0]
	},
	{
		"name":"wine",
		"translation":[82.46292114257813,
		-138.15283203125,
		-532.7742309570313],
		"rotation":[0.2133464515209198,
		0.8646592497825623,
		0.03855929151177406,
		0.45316755771636965],
		"scale":[1.0000531673431397,
		1.0000032186508179,
		1.0000559091567994],
		"children":[3,
		4]
	},
	{
		"name":"wine.1",
		"translation":[-191.3455810546875,
		384.5865478515625,
		485.1839294433594],
		"rotation":[0.03002445586025715,
		0.2780393064022064,
		-0.1952134370803833,
		-0.9400448799133301],
		"scale":[1.0000098943710328,
		1.0000022649765015,
		1.000008225440979],
		"children":[5,
		6]
	},
	{
		"name":"Cylinder",
		"mesh":0,
		"translation":[0.0,
		491.0244140625,
		-1.1368683772161604e-13],
		"rotation":[-1.3877787807814458e-17,
		0.0,
		0.0,
		-1.0],
		"scale":[1.0,
		1.0,
		1.0]
	},
	{
		"name":"buttle 1",
		"mesh":1
	},
	{
		"name":"Cylinder",
		"mesh":2,
		"translation":[0.0,
		397.72979736328127,
		-5.684341886080802e-14],
		"rotation":[0.0,
		0.0,
		0.0,
		-1.0],
		"scale":[1.0,
		1.0,
		1.0]
	},
	{
		"name":"Tube.1",
		"mesh":3
	}],
	"meshes":[{
		"name":"Cylinder",
		"primitives":[{
			"attributes":{
				"POSITION":13,
				"NORMAL":14,
				"TEXCOORD_0":15
			},
			"indices":12,
			"material":0
		}]
	},
	{
		"name":"buttle 1",
		"primitives":[{
			"attributes":{
				"POSITION":17,
				"NORMAL":18,
				"TEXCOORD_0":19
			},
			"indices":16,
			"material":1
		}]
	},
	{
		"name":"Cylinder",
		"primitives":[{
			"attributes":{
				"POSITION":21,
				"NORMAL":22,
				"TEXCOORD_0":23
			},
			"indices":20,
			"material":2
		}]
	},
	{
		"name":"Tube.1",
		"primitives":[{
			"attributes":{
				"POSITION":25,
				"NORMAL":26,
				"TEXCOORD_0":27
			},
			"indices":24,
			"material":3
		}]
	}],
	"cameras":[{
		"type":"perspective",
		"perspective":{
			"znear":0.009999999776482582,
			"zfar":10000000000.0,
			"aspectRatio":1.0,
			"yfov":0.9272952079772949
		}
	}],
	"accessors":[{
		"bufferView":0,
		"componentType":5126,
		"type":"SCALAR",
		"count":3,
		"byteOffset":0,
		"min":[0.0],
		"max":[3.0]
	},
	{
		"bufferView":0,
		"componentType":5126,
		"type":"VEC3",
		"count":3,
		"byteOffset":12,
		"min":[-11.703454971313477,
		-138.15283203125,
		-532.7742309570313],
		"max":[82.46292114257813,
		85.29495239257813,
		-101.02139282226563]
	},
	{
		"bufferView":1,
		"componentType":5126,
		"type":"SCALAR",
		"count":3,
		"byteOffset":0,
		"min":[0.0],
		"max":[3.0]
	},
	{
		"bufferView":1,
		"componentType":5126,
		"type":"VEC4",
		"count":3,
		"byteOffset":12,
		"min":[-0.2133464515209198,
		-0.8913400173187256,
		-0.064528688788414,
		-0.45316755771636965],
		"max":[-0.20498648285865785,
		-0.8646592497825623,
		-0.03855929151177406,
		-0.39916113018989565]
	},
	{
		"bufferView":2,
		"componentType":5126,
		"type":"SCALAR",
		"count":3,
		"byteOffset":0,
		"min":[0.0],
		"max":[3.0]
	},
	{
		"bufferView":2,
		"componentType":5126,
		"type":"VEC3",
		"count":3,
		"byteOffset":12,
		"min":[1.0000531673431397,
		1.0000032186508179,
		1.0000559091567994],
		"max":[1.0000536441802979,
		1.0000032186508179,
		1.0000563859939576]
	},
	{
		"bufferView":3,
		"componentType":5126,
		"type":"SCALAR",
		"count":3,
		"byteOffset":0,
		"min":[0.0],
		"max":[3.0]
	},
	{
		"bufferView":3,
		"componentType":5126,
		"type":"VEC3",
		"count":3,
		"byteOffset":12,
		"min":[-191.3455810546875,
		161.75784301757813,
		54.801719665527347],
		"max":[-98.41397094726563,
		384.5865478515625,
		485.1839294433594]
	},
	{
		"bufferView":4,
		"componentType":5126,
		"type":"SCALAR",
		"count":3,
		"byteOffset":0,
		"min":[0.0],
		"max":[3.0]
	},
	{
		"bufferView":4,
		"componentType":5126,
		"type":"VEC4",
		"count":3,
		"byteOffset":12,
		"min":[0.03002445586025715,
		0.2780393064022064,
		-0.23132073879241944,
		-0.9400448799133301],
		"max":[0.06838825345039368,
		0.5735281705856323,
		-0.1952134370803833,
		-0.7828660011291504]
	},
	{
		"bufferView":5,
		"componentType":5126,
		"type":"SCALAR",
		"count":3,
		"byteOffset":0,
		"min":[0.0],
		"max":[3.0]
	},
	{
		"bufferView":5,
		"componentType":5126,
		"type":"VEC3",
		"count":3,
		"byteOffset":12,
		"min":[1.0000098943710328,
		1.0000022649765015,
		1.000008225440979],
		"max":[1.0000100135803223,
		1.0000022649765015,
		1.000008225440979]
	},
	{
		"bufferView":6,
		"componentType":5123,
		"type":"SCALAR",
		"count":11520,
		"byteOffset":0,
		"min":[0],
		"max":[2070]
	},
	{
		"bufferView":7,
		"componentType":5126,
		"type":"VEC3",
		"count":2071,
		"byteOffset":0,
		"min":[-28.858413696289064,
		-53.602203369140628,
		-28.858413696289064],
		"max":[28.858413696289064,
		49.87451934814453,
		28.858413696289064]
	},
	{
		"bufferView":7,
		"componentType":5126,
		"type":"VEC3",
		"count":2071,
		"byteOffset":12,
		"min":[-1.0,
		-1.0,
		-1.0],
		"max":[1.0,
		1.0,
		1.0]
	},
	{
		"bufferView":7,
		"componentType":5126,
		"type":"VEC2",
		"count":2071,
		"byteOffset":24,
		"min":[0.0,
		0.0],
		"max":[1.0,
		1.0]
	},
	{
		"bufferView":8,
		"componentType":5123,
		"type":"SCALAR",
		"count":71424,
		"byteOffset":0,
		"min":[0],
		"max":[12323]
	},
	{
		"bufferView":9,
		"componentType":5126,
		"type":"VEC3",
		"count":12324,
		"byteOffset":0,
		"min":[-97.62123107910156,
		-199.45974731445313,
		-97.62123107910156],
		"max":[97.62123107910156,
		467.82830810546877,
		97.62123107910156]
	},
	{
		"bufferView":9,
		"componentType":5126,
		"type":"VEC3",
		"count":12324,
		"byteOffset":12,
		"min":[-1.0,
		-0.9986833930015564,
		-1.0],
		"max":[1.0,
		0.9997916221618652,
		1.0]
	},
	{
		"bufferView":9,
		"componentType":5126,
		"type":"VEC2",
		"count":12324,
		"byteOffset":24,
		"min":[0.0,
		0.0],
		"max":[1.0,
		1.0]
	},
	{
		"bufferView":10,
		"componentType":5123,
		"type":"SCALAR",
		"count":11520,
		"byteOffset":0,
		"min":[0],
		"max":[2070]
	},
	{
		"bufferView":11,
		"componentType":5126,
		"type":"VEC3",
		"count":2071,
		"byteOffset":0,
		"min":[-23.37531280517578,
		-43.41777801513672,
		-23.37531280517578],
		"max":[23.37531280517578,
		40.39836120605469,
		23.37531280517578]
	},
	{
		"bufferView":11,
		"componentType":5126,
		"type":"VEC3",
		"count":2071,
		"byteOffset":12,
		"min":[-1.0,
		-1.0,
		-1.0],
		"max":[1.0,
		1.0,
		1.0]
	},
	{
		"bufferView":11,
		"componentType":5126,
		"type":"VEC2",
		"count":2071,
		"byteOffset":24,
		"min":[0.0,
		0.0],
		"max":[1.0,
		1.0]
	},
	{
		"bufferView":12,
		"componentType":5123,
		"type":"SCALAR",
		"count":71424,
		"byteOffset":0,
		"min":[0],
		"max":[12323]
	},
	{
		"bufferView":13,
		"componentType":5126,
		"type":"VEC3",
		"count":12324,
		"byteOffset":0,
		"min":[-79.07319641113281,
		-161.56240844726563,
		-79.07319641113281],
		"max":[79.07319641113281,
		378.94091796875,
		79.07319641113281]
	},
	{
		"bufferView":13,
		"componentType":5126,
		"type":"VEC3",
		"count":12324,
		"byteOffset":12,
		"min":[-1.0,
		-0.9986833930015564,
		-1.0],
		"max":[1.0,
		0.9997916221618652,
		1.0]
	},
	{
		"bufferView":13,
		"componentType":5126,
		"type":"VEC2",
		"count":12324,
		"byteOffset":24,
		"min":[0.0,
		0.0],
		"max":[1.0,
		1.0]
	}],
	"bufferViews":[{
		"buffer":0,
		"byteOffset":0,
		"byteLength":48
	},
	{
		"buffer":0,
		"byteOffset":48,
		"byteLength":60
	},
	{
		"buffer":0,
		"byteOffset":108,
		"byteLength":48
	},
	{
		"buffer":1,
		"byteOffset":0,
		"byteLength":48
	},
	{
		"buffer":1,
		"byteOffset":48,
		"byteLength":60
	},
	{
		"buffer":1,
		"byteOffset":108,
		"byteLength":48
	},
	{
		"buffer":2,
		"byteOffset":0,
		"byteLength":23040,
		"target":34963
	},
	{
		"buffer":2,
		"byteOffset":23040,
		"byteLength":66272,
		"target":34962,
		"byteStride":32
	},
	{
		"buffer":3,
		"byteOffset":0,
		"byteLength":142848,
		"target":34963
	},
	{
		"buffer":3,
		"byteOffset":142848,
		"byteLength":394368,
		"target":34962,
		"byteStride":32
	},
	{
		"buffer":4,
		"byteOffset":0,
		"byteLength":23040,
		"target":34963
	},
	{
		"buffer":4,
		"byteOffset":23040,
		"byteLength":66272,
		"target":34962,
		"byteStride":32
	},
	{
		"buffer":5,
		"byteOffset":0,
		"byteLength":142848,
		"target":34963
	},
	{
		"buffer":5,
		"byteOffset":142848,
		"byteLength":394368,
		"target":34962,
		"byteStride":32
	}],
	"buffers":[{
		"uri":"data:application/octet-stream;base64,",
		"byteLength":156
	},
	{
		"uri":"data:application/octet-stream;base64,",
		"byteLength":156
	},
	{
		"uri":"data:application/octet-stream;base64,",
		"byteLength":89312
	},
	{
		"uri":"data:application/octet-stream;base64,",
		"byteLength":537216
	},
	{
		"uri":"data:application/octet-stream;base64,",
		"byteLength":89312
	},
	{
		"uri":"data:application/octet-stream;base64,",
		"byteLength":537216
	}],
	"materials":[{
		"pbrMetallicRoughness":{
			"baseColorFactor":[1.0,
			1.0,
			1.0,
			1.0],
			"metallicFactor":1.0,
			"roughnessFactor":1.0
		},
		"emissiveFactor":[0.0,
		0.0,
		0.0],
		"alphaMode":"OPAQUE",
		"doubleSided":false,
		"name":""
	},
	{
		"pbrMetallicRoughness":{
			"baseColorFactor":[1.0,
			1.0,
			1.0,
			1.0],
			"metallicFactor":1.0,
			"roughnessFactor":1.0
		},
		"emissiveFactor":[0.0,
		0.0,
		0.0],
		"alphaMode":"OPAQUE",
		"doubleSided":false,
		"name":""
	},
	{
		"pbrMetallicRoughness":{
			"baseColorFactor":[1.0,
			1.0,
			1.0,
			1.0],
			"metallicFactor":1.0,
			"roughnessFactor":1.0
		},
		"emissiveFactor":[0.0,
		0.0,
		0.0],
		"alphaMode":"OPAQUE",
		"doubleSided":false,
		"name":""
	},
	{
		"pbrMetallicRoughness":{
			"baseColorFactor":[1.0,
			1.0,
			1.0,
			1.0],
			"metallicFactor":1.0,
			"roughnessFactor":1.0
		},
		"emissiveFactor":[0.0,
		0.0,
		0.0],
		"alphaMode":"OPAQUE",
		"doubleSided":false,
		"name":""
	}],
	"animations":[{
		"samplers":[{
			"input":0,
			"interpolation":"LINEAR",
			"output":1
		},
		{
			"input":2,
			"interpolation":"LINEAR",
			"output":3
		},
		{
			"input":4,
			"interpolation":"LINEAR",
			"output":5
		},
		{
			"input":6,
			"interpolation":"LINEAR",
			"output":7
		},
		{
			"input":8,
			"interpolation":"LINEAR",
			"output":9
		},
		{
			"input":10,
			"interpolation":"LINEAR",
			"output":11
		}],
		"channels":[{
			"sampler":0,
			"target":{
				"node":1,
				"path":"translation"
			}
		},
		{
			"sampler":1,
			"target":{
				"node":1,
				"path":"rotation"
			}
		},
		{
			"sampler":2,
			"target":{
				"node":1,
				"path":"scale"
			}
		},
		{
			"sampler":3,
			"target":{
				"node":2,
				"path":"translation"
			}
		},
		{
			"sampler":4,
			"target":{
				"node":2,
				"path":"rotation"
			}
		},
		{
			"sampler":5,
			"target":{
				"node":2,
				"path":"scale"
			}
		}]
	}]
}