{
	"scenes":[{
		"nodes":[0,
		1,
		2]
	}],
	"asset":{
		"version":"2.0",
		"generator":"Created using the official Cinema 4D glTF Exporter 1.000x284978"
	},
	"accessors":[{
		"bufferView":0,
		"max":[3.0],
		"type":"SCALAR",
		"componentType":5126,
		"count":3,
		"byteOffset":0,
		"min":[0.0]
	},
	{
		"bufferView":0,
		"max":[15.640481948852539,
		384.5865478515625,
		485.1839294433594],
		"type":"VEC3",
		"componentType":5126,
		"count":3,
		"byteOffset":12,
		"min":[-191.3455810546875,
		164.67562866210938,
		252.56124877929688]
	},
	{
		"bufferView":1,
		"max":[3.0],
		"type":"SCALAR",
		"componentType":5126,
		"count":3,
		"byteOffset":0,
		"min":[0.0]
	},
	{
		"bufferView":1,
		"max":[0.10826580226421356,
		0.611882209777832,
		-0.1952134370803833,
		-0.7355246543884277],
		"type":"VEC4",
		"componentType":5126,
		"count":3,
		"byteOffset":12,
		"min":[0.03002445586025715,
		0.2780393064022064,
		-0.26996687054634097,
		-0.9400448799133301]
	},
	{
		"bufferView":2,
		"max":[3.0],
		"type":"SCALAR",
		"componentType":5126,
		"count":3,
		"byteOffset":0,
		"min":[0.0]
	},
	{
		"bufferView":2,
		"max":[1.0000100135803223,
		1.0000022649765015,
		1.0000083446502686],
		"type":"VEC3",
		"componentType":5126,
		"count":3,
		"byteOffset":12,
		"min":[1.0000098943710328,
		1.0000022649765015,
		1.000008225440979]
	},
	{
		"bufferView":3,
		"max":[3.0],
		"type":"SCALAR",
		"componentType":5126,
		"count":3,
		"byteOffset":0,
		"min":[0.0]
	},
	{
		"bufferView":3,
		"max":[334.1157531738281,
		74.83047485351563,
		154.67750549316407],
		"type":"VEC3",
		"componentType":5126,
		"count":3,
		"byteOffset":12,
		"min":[124.60885620117188,
		-146.76158142089845,
		-79.83885192871094]
	},
	{
		"bufferView":4,
		"max":[3.0],
		"type":"SCALAR",
		"componentType":5126,
		"count":3,
		"byteOffset":0,
		"min":[0.0]
	},
	{
		"bufferView":4,
		"max":[0.09564531594514847,
		0.4830414056777954,
		0.10595989972352982,
		-0.8638839721679688],
		"type":"VEC4",
		"componentType":5126,
		"count":3,
		"byteOffset":12,
		"min":[0.015249265357851982,
		0.06063857302069664,
		0.0970996767282486,
		-0.9933086633682251]
	},
	{
		"bufferView":5,
		"max":[3.0],
		"type":"SCALAR",
		"componentType":5126,
		"count":3,
		"byteOffset":0,
		"min":[0.0]
	},
	{
		"bufferView":5,
		"max":[1.0000293254852296,
		1.0000050067901612,
		1.0000275373458863],
		"type":"VEC3",
		"componentType":5126,
		"count":3,
		"byteOffset":12,
		"min":[1.0000293254852296,
		1.0000050067901612,
		1.0000275373458863]
	},
	{
		"bufferView":6,
		"max":[2070],
		"type":"SCALAR",
		"componentType":5123,
		"count":11520,
		"byteOffset":0,
		"min":[0]
	},
	{
		"bufferView":7,
		"max":[23.37531280517578,
		40.39836120605469,
		23.37531280517578],
		"type":"VEC3",
		"componentType":5126,
		"count":2071,
		"byteOffset":0,
		"min":[-23.37531280517578,
		-43.41777801513672,
		-23.37531280517578]
	},
	{
		"bufferView":7,
		"max":[1.0,
		1.0,
		1.0],
		"type":"VEC3",
		"componentType":5126,
		"count":2071,
		"byteOffset":12,
		"min":[-1.0,
		-1.0,
		-1.0]
	},
	{
		"bufferView":7,
		"max":[1.0,
		1.0],
		"type":"VEC2",
		"componentType":5126,
		"count":2071,
		"byteOffset":24,
		"min":[0.0,
		0.0]
	},
	{
		"bufferView":8,
		"max":[12323],
		"type":"SCALAR",
		"componentType":5123,
		"count":71424,
		"byteOffset":0,
		"min":[0]
	},
	{
		"bufferView":9,
		"max":[79.07319641113281,
		378.94091796875,
		79.07319641113281],
		"type":"VEC3",
		"componentType":5126,
		"count":12324,
		"byteOffset":0,
		"min":[-79.07319641113281,
		-161.56240844726563,
		-79.07319641113281]
	},
	{
		"bufferView":9,
		"max":[1.0,
		0.9997916221618652,
		1.0],
		"type":"VEC3",
		"componentType":5126,
		"count":12324,
		"byteOffset":12,
		"min":[-1.0,
		-0.9986833930015564,
		-1.0]
	},
	{
		"bufferView":9,
		"max":[1.0,
		1.0],
		"type":"VEC2",
		"componentType":5126,
		"count":12324,
		"byteOffset":24,
		"min":[0.0,
		0.0]
	},
	{
		"bufferView":10,
		"max":[1964],
		"type":"SCALAR",
		"componentType":5123,
		"count":11538,
		"byteOffset":0,
		"min":[0]
	},
	{
		"bufferView":11,
		"max":[23.342649459838868,
		40.398624420166019,
		23.375072479248048],
		"type":"VEC3",
		"componentType":5126,
		"count":1965,
		"byteOffset":0,
		"min":[-23.37480354309082,
		-43.42584991455078,
		-23.35476303100586]
	},
	{
		"bufferView":11,
		"max":[0.9994893670082092,
		0.999995231628418,
		0.9999991655349731],
		"type":"VEC3",
		"componentType":5126,
		"count":1965,
		"byteOffset":12,
		"min":[-0.9999970197677612,
		-1.0,
		-0.9998029470443726]
	},
	{
		"bufferView":11,
		"max":[0.999503493309021,
		0.9993005990982056],
		"type":"VEC2",
		"componentType":5126,
		"count":1965,
		"byteOffset":24,
		"min":[0.00007284804451046512,
		0.00028891314286738634]
	},
	{
		"bufferView":12,
		"max":[8657],
		"type":"SCALAR",
		"componentType":5123,
		"count":50238,
		"byteOffset":0,
		"min":[0]
	},
	{
		"bufferView":13,
		"max":[79.0028305053711,
		378.8836669921875,
		79.0089111328125],
		"type":"VEC3",
		"componentType":5126,
		"count":8658,
		"byteOffset":0,
		"min":[-79.0042495727539,
		-161.42401123046876,
		-79.01836395263672]
	},
	{
		"bufferView":13,
		"max":[0.9999862909317017,
		1.0,
		1.0],
		"type":"VEC3",
		"componentType":5126,
		"count":8658,
		"byteOffset":12,
		"min":[-0.9999998807907105,
		-0.9999998807907105,
		-0.9999995231628418]
	},
	{
		"bufferView":13,
		"max":[0.9933506846427918,
		0.987958550453186],
		"type":"VEC2",
		"componentType":5126,
		"count":8658,
		"byteOffset":24,
		"min":[0.00026710302336141467,
		0.008629703894257546]
	}],
	"nodes":[{
		"name":"Camera",
		"camera":0,
		"translation":[142.16375732421876,
		-153.41302490234376,
		-759.489013671875],
		"scale":[1.0,
		1.0,
		1.0],
		"rotation":[-0.00027455732924863696,
		-0.9853063225746155,
		0.17078901827335359,
		-0.0015839604893699289]
	},
	{
		"name":"Null",
		"translation":[-2.0641591548919679,
		183.48580932617188,
		272.458740234375],
		"scale":[1.0000100135803223,
		1.0000022649765015,
		1.0000083446502686],
		"rotation":[0.09895692765712738,
		0.5870848894119263,
		-0.2649725377559662,
		-0.7585040926933289],
		"children":[3,
		4]
	},
	{
		"name":"Null.1",
		"translation":[142.52911376953126,
		55.876502990722659,
		134.6180419921875],
		"scale":[1.0000293254852296,
		1.0000050067901612,
		1.0000275373458863],
		"rotation":[-0.02165902592241764,
		-0.09917034953832627,
		-0.09437088668346405,
		0.9903485774993897],
		"children":[5,
		6]
	},
	{
		"name":"Cylinder",
		"mesh":0,
		"translation":[-4.48573112487793,
		397.72979736328127,
		0.7133888602256775],
		"scale":[1.0,
		1.0,
		1.0],
		"rotation":[0.0,
		0.0,
		0.0,
		-1.0]
	},
	{
		"name":"Tube.1",
		"mesh":1,
		"translation":[2.3871285915374758,
		-0.8658370971679688,
		-7.070863723754883],
		"scale":[1.0,
		1.0,
		1.0],
		"rotation":[-0.011052021756768227,
		0.02106822468340397,
		-0.008461848832666874,
		-0.9996811151504517]
	},
	{
		"name":"Cylinder_remesh",
		"mesh":2,
		"translation":[6.039613253960852e-14,
		397.72979736328127,
		1.8474111129762606e-13],
		"scale":[1.0,
		1.0,
		1.0],
		"rotation":[8.153220851170185e-17,
		-4.44089183380283e-16,
		4.6504993633789129e-7,
		-1.0]
	},
	{
		"name":"Tube.1_remesh",
		"mesh":3
	}],
	"meshes":[{
		"name":"Cylinder",
		"primitives":[{
			"attributes":{
				"POSITION":13,
				"NORMAL":14,
				"TEXCOORD_0":15
			},
			"indices":12,
			"material":0
		}]
	},
	{
		"name":"Tube.1",
		"primitives":[{
			"attributes":{
				"POSITION":17,
				"NORMAL":18,
				"TEXCOORD_0":19
			},
			"indices":16,
			"material":1
		}]
	},
	{
		"name":"Cylinder_remesh",
		"primitives":[{
			"attributes":{
				"POSITION":21,
				"NORMAL":22,
				"TEXCOORD_0":23
			},
			"indices":20,
			"material":0
		}]
	},
	{
		"name":"Tube.1_remesh",
		"primitives":[{
			"attributes":{
				"POSITION":25,
				"NORMAL":26,
				"TEXCOORD_0":27
			},
			"indices":24,
			"material":1
		}]
	}],
	"cameras":[{
		"type":"perspective",
		"perspective":{
			"znear":0.009999999776482582,
			"zfar":10000000000.0,
			"aspectRatio":1.0,
			"yfov":0.9272952079772949
		}
	}],
	"bufferViews":[{
		"buffer":0,
		"byteOffset":0,
		"byteLength":48
	},
	{
		"buffer":0,
		"byteOffset":48,
		"byteLength":60
	},
	{
		"buffer":0,
		"byteOffset":108,
		"byteLength":48
	},
	{
		"buffer":1,
		"byteOffset":0,
		"byteLength":48
	},
	{
		"buffer":1,
		"byteOffset":48,
		"byteLength":60
	},
	{
		"buffer":1,
		"byteOffset":108,
		"byteLength":48
	},
	{
		"buffer":2,
		"byteOffset":0,
		"byteLength":23040,
		"target":34963
	},
	{
		"buffer":2,
		"byteOffset":23040,
		"byteLength":66272,
		"byteStride":32,
		"target":34962
	},
	{
		"buffer":3,
		"byteOffset":0,
		"byteLength":142848,
		"target":34963
	},
	{
		"buffer":3,
		"byteOffset":142848,
		"byteLength":394368,
		"byteStride":32,
		"target":34962
	},
	{
		"buffer":4,
		"byteOffset":0,
		"byteLength":23076,
		"target":34963
	},
	{
		"buffer":4,
		"byteOffset":23076,
		"byteLength":62880,
		"byteStride":32,
		"target":34962
	},
	{
		"buffer":5,
		"byteOffset":0,
		"byteLength":100476,
		"target":34963
	},
	{
		"buffer":5,
		"byteOffset":100476,
		"byteLength":277056,
		"byteStride":32,
		"target":34962
	}],
	"buffers":[{
		"uri":"data:application/octet-stream;base64,",
		"byteLength":156
	},
	{
		"uri":"data:application/octet-stream;base64,",
		"byteLength":156
	},
	{
		"uri":"data:application/octet-stream;base64,",
		"byteLength":89312
	},
	{
		"uri":"data:application/octet-stream;base64,",
		"byteLength":537216
	},
	{
		"uri":"data:application/octet-stream;base64,",
		"byteLength":85956
	},
	{
		"uri":"data:application/octet-stream;base64,",
		"byteLength":377532
	}],
	"images":[{
		"uri":"data:image/jpeg;base64,"
	}],
	"samplers":[{
		"magFilter":9729,
		"minFilter":9729,
		"wrapS":10497,
		"wrapT":10497
	}],
	"textures":[{
		"sampler":0,
		"source":0
	}],
	"materials":[{
		"pbrMetallicRoughness":{
			"baseColorFactor":[0.6,
			0.47843137254901965,
			0.40784313725490198,
			1.0],
			"metallicFactor":1.0,
			"roughnessFactor":1.0
		},
		"emissiveFactor":[0.0,
		0.0,
		0.0],
		"alphaMode":"OPAQUE",
		"doubleSided":true,
		"name":"Mat.1"
	},
	{
		"normalTexture":{
			"index":0,
			"scale":0.08
		},
		"pbrMetallicRoughness":{
			"baseColorFactor":[1.0,
			1.0,
			1.0,
			0.0],
			"metallicFactor":0.0,
			"roughnessFactor":0.26
		},
		"emissiveFactor":[0.0,
		0.0,
		0.0],
		"alphaMode":"BLEND",
		"doubleSided":true,
		"name":"Mat"
	}],
	"animations":[{
		"samplers":[{
			"input":0,
			"interpolation":"LINEAR",
			"output":1
		},
		{
			"input":2,
			"interpolation":"LINEAR",
			"output":3
		},
		{
			"input":4,
			"interpolation":"LINEAR",
			"output":5
		},
		{
			"input":6,
			"interpolation":"LINEAR",
			"output":7
		},
		{
			"input":8,
			"interpolation":"LINEAR",
			"output":9
		},
		{
			"input":10,
			"interpolation":"LINEAR",
			"output":11
		}],
		"channels":[{
			"sampler":0,
			"target":{
				"node":1,
				"path":"translation"
			}
		},
		{
			"sampler":1,
			"target":{
				"node":1,
				"path":"rotation"
			}
		},
		{
			"sampler":2,
			"target":{
				"node":1,
				"path":"scale"
			}
		},
		{
			"sampler":3,
			"target":{
				"node":2,
				"path":"translation"
			}
		},
		{
			"sampler":4,
			"target":{
				"node":2,
				"path":"rotation"
			}
		},
		{
			"sampler":5,
			"target":{
				"node":2,
				"path":"scale"
			}
		}]
	}]
}