{
	"asset":{
		"version":"2.0",
		"generator":"Created using the official Cinema 4D glTF Exporter 1.000x284978"
	},
	"scenes":[{
		"nodes":[0,
		1]
	}],
	"nodes":[{
		"name":"wine.1",
		"translation":[-82.03407287597656,
		-20.655166625976564,
		27.952409744262697],
		"rotation":[0.08853631466627121,
		-0.9876790046691895,
		-0.12851814925670625,
		0.011602445505559445],
		"scale":[0.9999992847442627,
		1.0000007152557374,
		0.9999986886978149],
		"children":[2,
		3]
	},
	{
		"name":"wine",
		"translation":[6.9265899658203129,
		37.96379089355469,
		-140.8957061767578],
		"rotation":[0.37990808486938479,
		0.8307998776435852,
		0.31083109974861147,
		0.2623460590839386],
		"scale":[1.0000009536743165,
		0.9999991059303284,
		1.000002384185791],
		"children":[4,
		5]
	},
	{
		"name":"buttle 1_remesh",
		"mesh":0,
		"translation":[-8.732224464416504,
		-1.1199582815170289,
		-4.780735969543457],
		"rotation":[0.002134843496605754,
		-0.006905067712068558,
		-0.00870755035430193,
		0.9999359846115112],
		"scale":[1.0000231266021729,
		1.000001311302185,
		1.0000240802764893]
	},
	{
		"name":"Cylinder_remesh",
		"mesh":1,
		"translation":[124.87498474121094,
		738.0047607421875,
		-0.950864315032959],
		"rotation":[0.0022863317281007768,
		-0.00013325153850018978,
		0.305882066488266,
		-0.9520666599273682],
		"scale":[1.0000874996185303,
		1.000014305114746,
		1.0000989437103272]
	},
	{
		"name":"buttle 1_remesh",
		"mesh":2
	},
	{
		"name":"Cylinder_remesh",
		"mesh":3,
		"translation":[-8.454243659973145,
		647.8118286132813,
		-0.0019004042260348797],
		"rotation":[-0.000022753500161343255,
		0.000006654182925558416,
		0.10216338187456131,
		0.9947676062583923],
		"scale":[1.0000277757644654,
		1.0000033378601075,
		1.0000293254852296]
	}],
	"meshes":[{
		"name":"buttle 1_remesh",
		"primitives":[{
			"attributes":{
				"POSITION":13,
				"NORMAL":14,
				"TEXCOORD_0":15
			},
			"indices":12
		}]
	},
	{
		"name":"Cylinder_remesh",
		"primitives":[{
			"attributes":{
				"POSITION":17,
				"NORMAL":18,
				"TEXCOORD_0":19
			},
			"indices":16
		}]
	},
	{
		"name":"buttle 1_remesh",
		"primitives":[{
			"attributes":{
				"POSITION":27,
				"NORMAL":28,
				"TEXCOORD_0":29
			},
			"indices":26
		}]
	},
	{
		"name":"Cylinder_remesh",
		"primitives":[{
			"attributes":{
				"POSITION":31,
				"NORMAL":32,
				"TEXCOORD_0":33
			},
			"indices":30
		}]
	}],
	"accessors":[{
		"bufferView":0,
		"max":[3.0],
		"type":"SCALAR",
		"componentType":5126,
		"count":3,
		"byteOffset":0,
		"min":[0.0]
	},
	{
		"bufferView":0,
		"max":[475.12261962890627,
		8.124603271484375,
		460.28961181640627],
		"type":"VEC3",
		"componentType":5126,
		"count":3,
		"byteOffset":12,
		"min":[-82.03407287597656,
		-20.655166625976564,
		27.952409744262697]
	},
	{
		"bufferView":1,
		"max":[3.0],
		"type":"SCALAR",
		"componentType":5126,
		"count":3,
		"byteOffset":0,
		"min":[0.0]
	},
	{
		"bufferView":1,
		"max":[-0.08853631466627121,
		0.9876790046691895,
		0.12851814925670625,
		-0.011602445505559445],
		"type":"VEC4",
		"componentType":5126,
		"count":3,
		"byteOffset":12,
		"min":[-0.10684344917535782,
		0.8434471487998962,
		0.032765068113803866,
		-0.5254595875740051]
	},
	{
		"bufferView":2,
		"max":[3.0],
		"type":"SCALAR",
		"componentType":5126,
		"count":3,
		"byteOffset":0,
		"min":[0.0]
	},
	{
		"bufferView":2,
		"max":[0.9999992847442627,
		1.0000007152557374,
		0.9999986886978149],
		"type":"VEC3",
		"componentType":5126,
		"count":3,
		"byteOffset":12,
		"min":[0.9999978542327881,
		1.0000005960464478,
		0.9999971985816956]
	},
	{
		"bufferView":3,
		"max":[3.0],
		"type":"SCALAR",
		"componentType":5126,
		"count":3,
		"byteOffset":0,
		"min":[0.0]
	},
	{
		"bufferView":3,
		"max":[6.9265899658203129,
		37.96379089355469,
		-140.8957061767578],
		"type":"VEC3",
		"componentType":5126,
		"count":3,
		"byteOffset":12,
		"min":[-557.8541259765625,
		3.3429412841796877,
		-549.9711303710938]
	},
	{
		"bufferView":4,
		"max":[3.0],
		"type":"SCALAR",
		"componentType":5126,
		"count":3,
		"byteOffset":0,
		"min":[0.0]
	},
	{
		"bufferView":4,
		"max":[0.37990808486938479,
		0.8860719203948975,
		0.31083109974861147,
		0.2623460590839386],
		"type":"VEC4",
		"componentType":5126,
		"count":3,
		"byteOffset":12,
		"min":[0.3159386217594147,
		0.8307998776435852,
		-0.09018289297819138,
		-0.3269960284233093]
	},
	{
		"bufferView":5,
		"max":[3.0],
		"type":"SCALAR",
		"componentType":5126,
		"count":3,
		"byteOffset":0,
		"min":[0.0]
	},
	{
		"bufferView":5,
		"max":[1.0000009536743165,
		0.9999991059303284,
		1.000002384185791],
		"type":"VEC3",
		"componentType":5126,
		"count":3,
		"byteOffset":12,
		"min":[0.9999999403953552,
		0.9999988079071045,
		1.0000011920928956]
	},
	{
		"bufferView":6,
		"max":[9195],
		"type":"SCALAR",
		"componentType":5123,
		"count":53658,
		"byteOffset":0,
		"min":[0]
	},
	{
		"bufferView":7,
		"max":[97.4069595336914,
		467.7576904296875,
		97.41426086425781],
		"type":"VEC3",
		"componentType":5126,
		"count":9196,
		"byteOffset":0,
		"min":[-97.40872955322266,
		-199.4056854248047,
		-97.40665435791016]
	},
	{
		"bufferView":7,
		"max":[0.9997597932815552,
		1.0,
		0.999876081943512],
		"type":"VEC3",
		"componentType":5126,
		"count":9196,
		"byteOffset":12,
		"min":[-0.9997681379318237,
		-0.9999911785125732,
		-0.9997668266296387]
	},
	{
		"bufferView":7,
		"max":[0.9938763380050659,
		0.9976024627685547],
		"type":"VEC2",
		"componentType":5126,
		"count":9196,
		"byteOffset":24,
		"min":[0.012814760208129883,
		0.0038024764508008959]
	},
	{
		"bufferView":8,
		"max":[1635],
		"type":"SCALAR",
		"componentType":5123,
		"count":9588,
		"byteOffset":0,
		"min":[0]
	},
	{
		"bufferView":9,
		"max":[28.783287048339845,
		49.7781867980957,
		28.808385848999025],
		"type":"VEC3",
		"componentType":5126,
		"count":1636,
		"byteOffset":0,
		"min":[-28.81522560119629,
		-53.60206604003906,
		-28.7900333404541]
	},
	{
		"bufferView":9,
		"max":[0.9998239278793335,
		0.9999467730522156,
		1.0],
		"type":"VEC3",
		"componentType":5126,
		"count":1636,
		"byteOffset":12,
		"min":[-0.9999792575836182,
		-1.0,
		-0.9998844265937805]
	},
	{
		"bufferView":9,
		"max":[0.9865800142288208,
		0.987391471862793],
		"type":"VEC2",
		"componentType":5126,
		"count":1636,
		"byteOffset":24,
		"min":[0.00751369446516037,
		0.01341516338288784]
	},
	{
		"bufferView":10,
		"max":[3.0],
		"type":"SCALAR",
		"componentType":5126,
		"count":4,
		"byteOffset":0,
		"min":[0.0]
	},
	{
		"bufferView":10,
		"max":[124.87498474121094,
		738.0047607421875,
		0.0],
		"type":"VEC3",
		"componentType":5126,
		"count":4,
		"byteOffset":16,
		"min":[0.0,
		491.02508544921877,
		-0.950864315032959]
	},
	{
		"bufferView":11,
		"max":[3.0],
		"type":"SCALAR",
		"componentType":5126,
		"count":4,
		"byteOffset":0,
		"min":[0.0]
	},
	{
		"bufferView":11,
		"max":[0.0022863317281007768,
		0.0,
		0.305882066488266,
		-0.9520666599273682],
		"type":"VEC4",
		"componentType":5126,
		"count":4,
		"byteOffset":16,
		"min":[0.0,
		-0.00013325153850018978,
		0.0,
		-1.0]
	},
	{
		"bufferView":12,
		"max":[3.0],
		"type":"SCALAR",
		"componentType":5126,
		"count":4,
		"byteOffset":0,
		"min":[0.0]
	},
	{
		"bufferView":12,
		"max":[1.0000874996185303,
		1.000014305114746,
		1.0000989437103272],
		"type":"VEC3",
		"componentType":5126,
		"count":4,
		"byteOffset":16,
		"min":[1.0000231266021729,
		1.000001311302185,
		1.0000240802764893]
	},
	{
		"bufferView":13,
		"max":[9195],
		"type":"SCALAR",
		"componentType":5123,
		"count":53658,
		"byteOffset":0,
		"min":[0]
	},
	{
		"bufferView":14,
		"max":[97.4069595336914,
		467.7576904296875,
		97.41426086425781],
		"type":"VEC3",
		"componentType":5126,
		"count":9196,
		"byteOffset":0,
		"min":[-97.40872955322266,
		-199.4056854248047,
		-97.40665435791016]
	},
	{
		"bufferView":14,
		"max":[0.9997597932815552,
		1.0,
		0.999876081943512],
		"type":"VEC3",
		"componentType":5126,
		"count":9196,
		"byteOffset":12,
		"min":[-0.9997681379318237,
		-0.9999911785125732,
		-0.9997668266296387]
	},
	{
		"bufferView":14,
		"max":[0.9938763380050659,
		0.9976024627685547],
		"type":"VEC2",
		"componentType":5126,
		"count":9196,
		"byteOffset":24,
		"min":[0.012814760208129883,
		0.0038024764508008959]
	},
	{
		"bufferView":15,
		"max":[1635],
		"type":"SCALAR",
		"componentType":5123,
		"count":9588,
		"byteOffset":0,
		"min":[0]
	},
	{
		"bufferView":16,
		"max":[28.783287048339845,
		49.7781867980957,
		28.808385848999025],
		"type":"VEC3",
		"componentType":5126,
		"count":1636,
		"byteOffset":0,
		"min":[-28.81522560119629,
		-53.60206604003906,
		-28.7900333404541]
	},
	{
		"bufferView":16,
		"max":[0.9998239278793335,
		0.9999467730522156,
		1.0],
		"type":"VEC3",
		"componentType":5126,
		"count":1636,
		"byteOffset":12,
		"min":[-0.9999792575836182,
		-1.0,
		-0.9998844265937805]
	},
	{
		"bufferView":16,
		"max":[0.9865800142288208,
		0.987391471862793],
		"type":"VEC2",
		"componentType":5126,
		"count":1636,
		"byteOffset":24,
		"min":[0.00751369446516037,
		0.01341516338288784]
	},
	{
		"bufferView":17,
		"max":[3.0],
		"type":"SCALAR",
		"componentType":5126,
		"count":4,
		"byteOffset":0,
		"min":[0.0]
	},
	{
		"bufferView":17,
		"max":[0.0,
		647.8118286132813,
		0.0],
		"type":"VEC3",
		"componentType":5126,
		"count":4,
		"byteOffset":16,
		"min":[-8.454243659973145,
		491.02508544921877,
		-0.0019004042260348797]
	},
	{
		"bufferView":18,
		"max":[3.0],
		"type":"SCALAR",
		"componentType":5126,
		"count":4,
		"byteOffset":0,
		"min":[0.0]
	},
	{
		"bufferView":18,
		"max":[0.000022753500161343255,
		0.0,
		0.0,
		-0.9947676062583923],
		"type":"VEC4",
		"componentType":5126,
		"count":4,
		"byteOffset":16,
		"min":[0.0,
		-0.000006654182925558416,
		-0.10216338187456131,
		-1.0]
	},
	{
		"bufferView":19,
		"max":[3.0],
		"type":"SCALAR",
		"componentType":5126,
		"count":4,
		"byteOffset":0,
		"min":[0.0]
	},
	{
		"bufferView":19,
		"max":[1.0000277757644654,
		1.0000033378601075,
		1.0000293254852296],
		"type":"VEC3",
		"componentType":5126,
		"count":4,
		"byteOffset":16,
		"min":[1.0000231266021729,
		1.000001311302185,
		1.0000240802764893]
	}],
	"bufferViews":[{
		"buffer":0,
		"byteOffset":0,
		"byteLength":48
	},
	{
		"buffer":0,
		"byteOffset":48,
		"byteLength":60
	},
	{
		"buffer":0,
		"byteOffset":108,
		"byteLength":48
	},
	{
		"buffer":1,
		"byteOffset":0,
		"byteLength":48
	},
	{
		"buffer":1,
		"byteOffset":48,
		"byteLength":60
	},
	{
		"buffer":1,
		"byteOffset":108,
		"byteLength":48
	},
	{
		"buffer":2,
		"byteOffset":0,
		"byteLength":107316,
		"target":34963
	},
	{
		"buffer":2,
		"byteOffset":107316,
		"byteLength":294272,
		"target":34962,
		"byteStride":32
	},
	{
		"buffer":3,
		"byteOffset":0,
		"byteLength":19176,
		"target":34963
	},
	{
		"buffer":3,
		"byteOffset":19176,
		"byteLength":52352,
		"target":34962,
		"byteStride":32
	},
	{
		"buffer":4,
		"byteOffset":0,
		"byteLength":64
	},
	{
		"buffer":4,
		"byteOffset":64,
		"byteLength":80
	},
	{
		"buffer":4,
		"byteOffset":144,
		"byteLength":64
	},
	{
		"buffer":5,
		"byteOffset":0,
		"byteLength":107316,
		"target":34963
	},
	{
		"buffer":5,
		"byteOffset":107316,
		"byteLength":294272,
		"target":34962,
		"byteStride":32
	},
	{
		"buffer":6,
		"byteOffset":0,
		"byteLength":19176,
		"target":34963
	},
	{
		"buffer":6,
		"byteOffset":19176,
		"byteLength":52352,
		"target":34962,
		"byteStride":32
	},
	{
		"buffer":7,
		"byteOffset":0,
		"byteLength":64
	},
	{
		"buffer":7,
		"byteOffset":64,
		"byteLength":80
	},
	{
		"buffer":7,
		"byteOffset":144,
		"byteLength":64
	}],
	"buffers":[{
		"uri":"data:application/octet-stream;base64,",
		"byteLength":156
	},
	{
		"uri":"data:application/octet-stream;base64,",
		"byteLength":156
	},
	{
		"uri":"data:application/octet-stream;base64,",
		"byteLength":401588
	},
	{
		"uri":"data:application/octet-stream;base64,",
		"byteLength":71528
	},
	{
		"uri":"data:application/octet-stream;base64,",
		"byteLength":208
	},
	{
		"uri":"data:application/octet-stream;base64,",
		"byteLength":401588
	},
	{
		"uri":"data:application/octet-stream;base64,",
		"byteLength":71528
	},
	{
		"uri":"data:application/octet-stream;base64,",
		"byteLength":208
	}],
	"animations":[{
		"samplers":[{
			"input":0,
			"interpolation":"LINEAR",
			"output":1
		},
		{
			"input":2,
			"interpolation":"LINEAR",
			"output":3
		},
		{
			"input":4,
			"interpolation":"LINEAR",
			"output":5
		},
		{
			"input":6,
			"interpolation":"LINEAR",
			"output":7
		},
		{
			"input":8,
			"interpolation":"LINEAR",
			"output":9
		},
		{
			"input":10,
			"interpolation":"LINEAR",
			"output":11
		},
		{
			"input":20,
			"interpolation":"LINEAR",
			"output":21
		},
		{
			"input":22,
			"interpolation":"LINEAR",
			"output":23
		},
		{
			"input":24,
			"interpolation":"LINEAR",
			"output":25
		},
		{
			"input":34,
			"interpolation":"LINEAR",
			"output":35
		},
		{
			"input":36,
			"interpolation":"LINEAR",
			"output":37
		},
		{
			"input":38,
			"interpolation":"LINEAR",
			"output":39
		}],
		"channels":[{
			"sampler":0,
			"target":{
				"node":0,
				"path":"translation"
			}
		},
		{
			"sampler":1,
			"target":{
				"node":0,
				"path":"rotation"
			}
		},
		{
			"sampler":2,
			"target":{
				"node":0,
				"path":"scale"
			}
		},
		{
			"sampler":3,
			"target":{
				"node":1,
				"path":"translation"
			}
		},
		{
			"sampler":4,
			"target":{
				"node":1,
				"path":"rotation"
			}
		},
		{
			"sampler":5,
			"target":{
				"node":1,
				"path":"scale"
			}
		},
		{
			"sampler":6,
			"target":{
				"node":3,
				"path":"translation"
			}
		},
		{
			"sampler":7,
			"target":{
				"node":3,
				"path":"rotation"
			}
		},
		{
			"sampler":8,
			"target":{
				"node":3,
				"path":"scale"
			}
		},
		{
			"sampler":9,
			"target":{
				"node":5,
				"path":"translation"
			}
		},
		{
			"sampler":10,
			"target":{
				"node":5,
				"path":"rotation"
			}
		},
		{
			"sampler":11,
			"target":{
				"node":5,
				"path":"scale"
			}
		}]
	}]
}